<?xml version="1.0" encoding="iso-8859-1"?>
<!-- Generator: Adobe Illustrator 19.0.0, SVG Export Plug-In . SVG Version: 6.00 Build 0)  -->
<svg version="1.1" id="Capa_1" xmlns="http://www.w3.org/2000/svg" xmlns:xlink="http://www.w3.org/1999/xlink" x="0px" y="0px"
	 viewBox="0 0 512 512" style="enable-background:new 0 0 512 512;" xml:space="preserve">
<path style="fill:#303C42;" d="M444.875,18.208c2.083-2.083,3.125-4.813,3.125-7.542s-1.042-5.458-3.125-7.542
	c-4.167-4.167-10.917-4.167-15.083,0c-19.375,19.375-50.875,19.375-70.25,0c-4.167-4.167-10.917-4.167-15.083,0
	c-2.083,2.083-3.125,4.812-3.125,7.542s1.042,5.458,3.125,7.542c7.301,7.301,11.835,16.331,13.63,25.784
	c-88.184,10.591-113.578,46.233-120.603,63.073c-51.206,2.095-73.41,23.109-74.361,24.06c-2,2-3.125,4.708-3.125,7.542v32.087
	c-57.07,30.577-96,90.763-96,159.913C64,430.656,145.344,512,245.333,512s181.333-81.344,181.333-181.333
	c0-69.15-38.93-129.336-96-159.913v-32.087c0-2.833-1.125-5.542-3.125-7.542c-0.898-0.898-20.654-19.759-65.957-23.633
	c9.371-13.174,33.871-33.948,95.691-41.964c-2.118,8.393-6.266,16.378-12.818,22.93c-2.083,2.083-3.125,4.813-3.125,7.542
	c0,2.729,1.042,5.458,3.125,7.542c4.167,4.167,10.917,4.167,15.083,0c19.375-19.375,50.875-19.375,70.25,0
	c2.083,2.083,4.813,3.125,7.542,3.125s5.458-1.042,7.542-3.125C446.958,101.458,448,98.729,448,96c0-2.729-1.042-5.458-3.125-7.542
	C425.51,69.094,425.51,37.573,444.875,18.208z"/>
<circle style="fill:#5C6671;" cx="245.333" cy="330.667" r="160"/>
<linearGradient id="SVGID_1_" gradientUnits="userSpaceOnUse" x1="-42.0019" y1="634.1552" x2="-28.4044" y2="627.8135" gradientTransform="matrix(21.3333 0 0 -21.3333 996.3334 13791.667)">
	<stop  offset="0" style="stop-color:#FFFFFF;stop-opacity:0.2"/>
	<stop  offset="1" style="stop-color:#FFFFFF;stop-opacity:0"/>
</linearGradient>
<circle style="fill:url(#SVGID_1_);" cx="245.333" cy="330.667" r="160"/>
<path style="fill:#5C6671;" d="M309.333,161.216c-19.935-7.556-41.448-11.883-64-11.883s-44.065,4.327-64,11.883v-17.383
	c7.281-5,27.302-15.833,64-15.833c36.771,0,56.802,10.875,64,15.823V161.216z"/>
<path style="opacity:0.2;fill:#FFFFFF;enable-background:new    ;" d="M245.333,128c-36.698,0-56.719,10.833-64,15.833v9.451
	c7.281-5,27.302-15.833,64-15.833c36.771,0,56.802,10.875,64,15.823v-9.451C302.135,138.875,282.104,128,245.333,128z"/>
<path style="fill:#FAA41A;" d="M410.885,69.552c-5.323-1.24-10.771-1.854-16.219-1.854c-5.448,0-10.896,0.615-16.219,1.854
	c2.479-10.656,2.479-21.781,0-32.438c10.646,2.479,21.792,2.479,32.438,0C408.406,47.771,408.406,58.896,410.885,69.552z"/>
<path style="fill:#E4E1DC;" d="M128,330.667C128,395.365,180.635,448,245.333,448c20.625,0,40.906-5.427,58.677-15.708
	c5.094-2.948,6.844-9.469,3.885-14.573c-2.948-5.094-9.469-6.885-14.573-3.885c-14.521,8.396-31.115,12.833-47.99,12.833
	c-52.938,0-96-43.063-96-96s43.063-96,96-96s96,43.063,96,96v10.667c0,11.76-9.573,21.333-21.333,21.333
	c-11.76,0-21.333-9.573-21.333-21.333v-42.667c0-5.896-4.771-10.667-10.667-10.667c-2.868,0-5.447,1.161-7.362,3
	c-9.428-8.401-21.714-13.667-35.305-13.667c-29.406,0-53.333,23.927-53.333,53.333S215.927,384,245.333,384
	c15.896,0,30.03-7.132,39.81-18.202C292.87,376.775,305.583,384,320,384c23.531,0,42.667-19.135,42.667-42.667v-10.667
	c0-64.698-52.635-117.333-117.333-117.333S128,265.969,128,330.667z M245.333,362.667c-17.646,0-32-14.354-32-32
	c0-17.646,14.354-32,32-32s32,14.354,32,32C277.333,348.313,262.979,362.667,245.333,362.667z"/>
<linearGradient id="SVGID_2_" gradientUnits="userSpaceOnUse" x1="-40.9199" y1="638.8351" x2="-25.5139" y2="631.6516" gradientTransform="matrix(21.3333 0 0 -21.3333 996.3334 13791.667)">
	<stop  offset="0" style="stop-color:#FFFFFF;stop-opacity:0.2"/>
	<stop  offset="1" style="stop-color:#FFFFFF;stop-opacity:0"/>
</linearGradient>
<path style="fill:url(#SVGID_2_);" d="M444.875,18.208c2.083-2.083,3.125-4.813,3.125-7.542s-1.042-5.458-3.125-7.542
	c-4.167-4.167-10.917-4.167-15.083,0c-19.375,19.375-50.875,19.375-70.25,0c-4.167-4.167-10.917-4.167-15.083,0
	c-2.083,2.083-3.125,4.812-3.125,7.542s1.042,5.458,3.125,7.542c7.301,7.301,11.835,16.331,13.63,25.784
	c-88.184,10.591-113.578,46.233-120.603,63.073c-51.206,2.095-73.41,23.109-74.361,24.06c-2,2-3.125,4.708-3.125,7.542v32.087
	c-57.07,30.577-96,90.763-96,159.913C64,430.656,145.344,512,245.333,512s181.333-81.344,181.333-181.333
	c0-69.15-38.93-129.336-96-159.913v-32.087c0-2.833-1.125-5.542-3.125-7.542c-0.898-0.898-20.654-19.759-65.957-23.633
	c9.371-13.174,33.871-33.948,95.691-41.964c-2.118,8.393-6.266,16.378-12.818,22.93c-2.083,2.083-3.125,4.813-3.125,7.542
	c0,2.729,1.042,5.458,3.125,7.542c4.167,4.167,10.917,4.167,15.083,0c19.375-19.375,50.875-19.375,70.25,0
	c2.083,2.083,4.813,3.125,7.542,3.125s5.458-1.042,7.542-3.125C446.958,101.458,448,98.729,448,96c0-2.729-1.042-5.458-3.125-7.542
	C425.51,69.094,425.51,37.573,444.875,18.208z"/>
<g>
</g>
<g>
</g>
<g>
</g>
<g>
</g>
<g>
</g>
<g>
</g>
<g>
</g>
<g>
</g>
<g>
</g>
<g>
</g>
<g>
</g>
<g>
</g>
<g>
</g>
<g>
</g>
<g>
</g>
</svg>
