<?xml version="1.0" encoding="iso-8859-1"?>
<!-- Generator: Adobe Illustrator 19.0.0, SVG Export Plug-In . SVG Version: 6.00 Build 0)  -->
<svg version="1.1" id="Capa_1" xmlns="http://www.w3.org/2000/svg" xmlns:xlink="http://www.w3.org/1999/xlink" x="0px" y="0px"
	 viewBox="0 0 469.333 469.333" style="enable-background:new 0 0 469.333 469.333;" xml:space="preserve">
<path style="fill:#303C42;" d="M467.542,260.751l-40.875-61.313V42.667C426.667,19.103,407.564,0,384,0H85.333
	C61.769,0,42.667,19.103,42.667,42.667v156.771L1.791,260.751C0.623,262.503,0,264.561,0,266.667v160
	c0,23.564,19.103,42.667,42.667,42.667h384c23.564,0,42.667-19.103,42.667-42.667v-160
	C469.333,264.561,468.71,262.503,467.542,260.751z"/>
<polygon style="fill:#546E7A;" points="426.667,237.896 438.736,256 426.667,256 "/>
<path style="fill:#FFFFFF;" d="M85.333,21.333H384c11.782,0,21.333,9.551,21.333,21.333V256l-22.607,0
	c-23.851,0-40.095,20.057-41.426,43.871C340.673,311.074,331.366,320,320,320H149.333c-11.384,0-21.618-8.912-21.346-20.292
	C128.562,275.702,109.2,256,85.333,256H64V42.667C64,30.885,73.551,21.333,85.333,21.333z"/>
<g>
	<polygon style="fill:#546E7A;" points="42.667,256 30.598,256 42.667,237.896 	"/>
	<path style="fill:#546E7A;" d="M426.667,448h-384c-11.771,0-21.333-9.573-21.333-21.333V277.333h64
		c11.771,0,21.333,9.573,21.333,21.333c0,23.531,19.146,42.667,42.667,42.667H320c23.521,0,42.667-19.135,42.667-42.667
		c0-11.76,9.563-21.333,21.333-21.333h64v149.333C448,438.427,438.438,448,426.667,448z"/>
</g>
<path style="fill:#303C42;" d="M160,170.66c-5.896,0-10.667,4.771-10.667,10.667s4.771,10.667,10.667,10.667h10.667v14.74
	l-15.438,7.719c-5.271,2.635-7.396,9.042-4.771,14.313c1.875,3.74,5.646,5.896,9.542,5.896c1.604,0,3.229-0.365,4.771-1.125
	l8.202-4.1c7.193,27.47,31.999,47.892,61.694,47.892s54.501-20.422,61.695-47.892l8.201,4.1c1.542,0.76,3.167,1.125,4.771,1.125
	c3.896,0,7.667-2.156,9.542-5.896c2.625-5.271,0.5-11.677-4.771-14.313l-15.438-7.719v-14.74h10.667
	c5.896,0,10.667-4.771,10.667-10.667s-4.771-10.667-10.667-10.667h-10.667v-14.74l15.438-7.719
	c5.271-2.635,7.396-9.042,4.771-14.313c-2.646-5.281-9.021-7.385-14.313-4.771l-8.982,4.491
	c-5.197-13.039-16.591-22.926-30.568-25.948c-0.914-2.858-2.092-5.595-3.727-8.043l13.922-18.563
	c3.521-4.708,2.563-11.396-2.146-14.927c-4.667-3.51-11.375-2.583-14.938,2.135l-13.99,18.655c-3.012-0.941-6.151-1.592-9.469-1.592
	s-6.457,0.651-9.469,1.592l-13.99-18.655c-3.542-4.719-10.25-5.656-14.938-2.135c-4.708,3.531-5.667,10.219-2.146,14.927
	l13.922,18.563c-1.634,2.448-2.813,5.185-3.727,8.043c-13.977,3.022-25.371,12.909-30.568,25.948l-8.982-4.491
	c-5.25-2.594-11.667-0.51-14.313,4.771c-2.625,5.271-0.5,11.677,4.771,14.313l15.438,7.719v14.74H160z"/>
<g>
	<path style="fill:#CA7C1B;" d="M277.333,149.327v64c0,19.826-13.654,36.382-32,41.151V127.994H256
		C267.771,127.994,277.333,137.567,277.333,149.327z"/>
	<path style="fill:#CA7C1B;" d="M192,149.327c0-11.76,9.563-21.333,21.333-21.333H224v126.484c-18.346-4.77-32-21.326-32-41.151
		V149.327z"/>
</g>
<path style="opacity:0.1;enable-background:new    ;" d="M245.333,234.66v19.818c18.346-4.77,32-21.326,32-41.151v-19.818
	C277.333,213.335,263.68,229.891,245.333,234.66z"/>
<path style="opacity:0.1;enable-background:new    ;" d="M192,193.509v19.818c0,19.826,13.654,36.382,32,41.151V234.66
	C205.654,229.891,192,213.335,192,193.509z"/>
<linearGradient id="SVGID_1_" gradientUnits="userSpaceOnUse" x1="-67.2251" y1="617.902" x2="-43.5622" y2="606.868" gradientTransform="matrix(21.3333 0 0 -21.3333 1430.1112 13315.2227)">
	<stop  offset="0" style="stop-color:#FFFFFF;stop-opacity:0.2"/>
	<stop  offset="1" style="stop-color:#FFFFFF;stop-opacity:0"/>
</linearGradient>
<path style="fill:url(#SVGID_1_);" d="M467.542,260.751l-40.875-61.313V42.667C426.667,19.103,407.564,0,384,0H85.333
	C61.769,0,42.667,19.103,42.667,42.667v156.771L1.791,260.751C0.623,262.503,0,264.561,0,266.667v160
	c0,23.564,19.103,42.667,42.667,42.667h384c23.564,0,42.667-19.103,42.667-42.667v-160
	C469.333,264.561,468.71,262.503,467.542,260.751z"/>
<g>
</g>
<g>
</g>
<g>
</g>
<g>
</g>
<g>
</g>
<g>
</g>
<g>
</g>
<g>
</g>
<g>
</g>
<g>
</g>
<g>
</g>
<g>
</g>
<g>
</g>
<g>
</g>
<g>
</g>
</svg>
