<svg width="294" height="54" viewBox="0 0 294 54" fill="none" xmlns="http://www.w3.org/2000/svg">
<g filter="url(#filter0_d)">
<path d="M4.35449 46V0.970703H13.6709C17.1214 0.970703 19.7093 2.52344 21.4346 5.62891L24.54 11.8398L27.6455 5.62891C29.3708 2.52344 31.9587 0.970703 35.4092 0.970703H44.7256V46H38.5146V7.18164H36.9619C34.8916 7.18164 33.3389 8.2168 32.3037 10.2871L24.54 27.3672L16.7764 10.2871C15.7412 8.2168 14.1885 7.18164 12.1182 7.18164H10.5654V46H4.35449ZM12.1182 46V8.73438C13.1533 8.73438 13.8434 9.07943 14.1885 9.76953L24.54 32.0254L34.8916 9.76953C35.2367 9.07943 35.9268 8.73438 36.9619 8.73438V46H30.751V32.0254L24.54 46L18.3291 32.0254V46H12.1182ZM83.5439 15.7217C83.5439 19.7933 82.4915 22.8815 80.3867 24.9863C78.3164 27.0566 76.5566 28.4541 75.1074 29.1787L83.5439 46H77.333L66.4639 24.2617H69.5693C71.3981 24.2617 73.1406 23.4336 74.7969 21.7773C76.4876 20.0866 77.333 18.068 77.333 15.7217C77.333 13.4098 76.4876 11.4085 74.7969 9.71777C73.1406 8.02702 71.3981 7.18164 69.5693 7.18164H47.8311V0.970703H69.5693C73.1234 0.970703 76.3324 2.41992 79.1963 5.31836C82.0947 8.2168 83.5439 11.6846 83.5439 15.7217ZM75.7803 15.7217C75.7803 17.654 75.0902 19.3102 73.71 20.6904C72.3643 22.0361 70.984 22.709 69.5693 22.709H54.042V46H47.8311V16.498H68.0166C69.0518 16.498 69.5693 16.2393 69.5693 15.7217C69.5693 15.2041 69.0518 14.9453 68.0166 14.9453H47.8311V8.73438H69.5693C70.984 8.73438 72.3643 9.42448 73.71 10.8047C75.0902 12.1849 75.7803 13.8239 75.7803 15.7217ZM75.7803 46H69.5693L61.8057 30.4727V46H55.5947V24.2617H64.9111L75.7803 46ZM86.6494 38.7539H93.8955V46H86.6494V38.7539ZM142.858 15.7217C142.858 19.7933 141.806 22.8815 139.701 24.9863C137.631 27.0566 135.871 28.4541 134.422 29.1787L142.858 46H136.647L125.778 24.2617H128.884C130.713 24.2617 132.455 23.4336 134.111 21.7773C135.802 20.0866 136.647 18.068 136.647 15.7217C136.647 13.4098 135.802 11.4085 134.111 9.71777C132.455 8.02702 130.713 7.18164 128.884 7.18164H107.146V0.970703H128.884C132.438 0.970703 135.647 2.41992 138.511 5.31836C141.409 8.2168 142.858 11.6846 142.858 15.7217ZM135.095 15.7217C135.095 17.654 134.405 19.3102 133.024 20.6904C131.679 22.0361 130.299 22.709 128.884 22.709H113.356V46H107.146V16.498H127.331C128.366 16.498 128.884 16.2393 128.884 15.7217C128.884 15.2041 128.366 14.9453 127.331 14.9453H107.146V8.73438H128.884C130.299 8.73438 131.679 9.42448 133.024 10.8047C134.405 12.1849 135.095 13.8239 135.095 15.7217ZM135.095 46H128.884L121.12 30.4727V46H114.909V24.2617H124.226L135.095 46ZM180.124 14.9453V32.0254C180.124 41.3418 175.466 46 166.149 46H159.938C150.622 46 145.964 41.3418 145.964 32.0254V14.9453C145.964 5.62891 150.622 0.970703 159.938 0.970703H166.149C175.466 0.970703 180.124 5.62891 180.124 14.9453ZM172.36 14.9453V32.0254C172.36 36.166 170.29 38.2363 166.149 38.2363H159.938C155.798 38.2363 153.728 36.166 153.728 32.0254V14.9453C153.728 10.8047 155.798 8.73438 159.938 8.73438H166.149C170.29 8.73438 172.36 10.8047 172.36 14.9453ZM173.913 14.9453C173.913 9.76953 171.325 7.18164 166.149 7.18164H159.938C154.763 7.18164 152.175 9.76953 152.175 14.9453V32.0254C152.175 37.2012 154.763 39.7891 159.938 39.7891H166.149C171.325 39.7891 173.913 37.2012 173.913 32.0254V14.9453ZM166.149 16.498C166.149 15.4629 165.632 14.9453 164.597 14.9453H161.491C160.456 14.9453 159.938 15.4629 159.938 16.498V30.4727C159.938 31.5078 160.456 32.0254 161.491 32.0254H164.597C165.632 32.0254 166.149 31.5078 166.149 30.4727V16.498ZM183.229 1.28125H199.999C205.14 1.28125 209.35 4.45573 212.628 10.8047C213.18 12.737 213.456 14.5312 213.456 16.1875C213.456 18.7754 212.766 21.2598 211.386 23.6406C212.766 26.056 213.456 28.6784 213.456 31.5078C213.456 37.8223 210.006 42.515 203.104 45.5859L199.999 46H183.229V39.7891H198.757C202.897 39.7891 205.658 37.4427 207.038 32.75V30.6797C207.038 27.8503 205.589 25.5729 202.69 23.8477C205.589 21.7083 207.038 19.362 207.038 16.8086V15.3594C207.038 12.1504 205.175 9.66602 201.448 7.90625C200.827 7.63021 199.93 7.49219 198.757 7.49219H183.229V1.28125ZM183.229 8.94141H198.757C202.242 8.94141 204.519 10.9427 205.589 14.9453V16.8086C205.589 19.1895 204.071 21.1217 201.034 22.6055C200.482 22.8815 199.723 23.0195 198.757 23.0195H183.229V18.4648V15.9805V13.4961V8.94141ZM183.229 24.4688H199.792C202.242 24.4688 204.174 26.332 205.589 30.0586V31.7148C205.589 34.8203 203.795 37.0286 200.206 38.3398H183.229V34.1992V31.5078V28.6094V24.4688ZM189.647 30.6797V32.1289H197.722C198.757 32.1289 199.309 31.9219 199.378 31.5078V31.3008C199.309 30.8867 198.757 30.6797 197.722 30.6797H189.647ZM189.647 15.1523V16.6016H197.722C198.757 16.6016 199.309 16.3945 199.378 15.9805V15.7734C199.309 15.3594 198.757 15.1523 197.722 15.1523H189.647ZM250.722 14.9453V32.0254C250.722 41.3418 246.063 46 236.747 46H230.536C221.22 46 216.562 41.3418 216.562 32.0254V14.9453C216.562 5.62891 221.22 0.970703 230.536 0.970703H236.747C246.063 0.970703 250.722 5.62891 250.722 14.9453ZM242.958 14.9453V32.0254C242.958 36.166 240.888 38.2363 236.747 38.2363H230.536C226.396 38.2363 224.325 36.166 224.325 32.0254V14.9453C224.325 10.8047 226.396 8.73438 230.536 8.73438H236.747C240.888 8.73438 242.958 10.8047 242.958 14.9453ZM244.511 14.9453C244.511 9.76953 241.923 7.18164 236.747 7.18164H230.536C225.36 7.18164 222.772 9.76953 222.772 14.9453V32.0254C222.772 37.2012 225.36 39.7891 230.536 39.7891H236.747C241.923 39.7891 244.511 37.2012 244.511 32.0254V14.9453ZM236.747 16.498C236.747 15.4629 236.229 14.9453 235.194 14.9453H232.089C231.054 14.9453 230.536 15.4629 230.536 16.498V30.4727C230.536 31.5078 231.054 32.0254 232.089 32.0254H235.194C236.229 32.0254 236.747 31.5078 236.747 30.4727V16.498ZM253.827 0.970703V7.18164H289.54V0.970703H253.827ZM253.827 8.73438V14.9453H264.696V46H270.907V8.73438H253.827ZM272.46 46H278.671V14.9453H289.54V8.73438H272.46V46Z" fill="#DF2D2F"/>
</g>
<defs>
<filter id="filter0_d" x="0.354492" y="0.970703" width="293.186" height="53.0293" filterUnits="userSpaceOnUse" color-interpolation-filters="sRGB">
<feFlood flood-opacity="0" result="BackgroundImageFix"/>
<feColorMatrix in="SourceAlpha" type="matrix" values="0 0 0 0 0 0 0 0 0 0 0 0 0 0 0 0 0 0 127 0" result="hardAlpha"/>
<feOffset dy="4"/>
<feGaussianBlur stdDeviation="2"/>
<feColorMatrix type="matrix" values="0 0 0 0 0 0 0 0 0 0 0 0 0 0 0 0 0 0 0.25 0"/>
<feBlend mode="normal" in2="BackgroundImageFix" result="effect1_dropShadow"/>
<feBlend mode="normal" in="SourceGraphic" in2="effect1_dropShadow" result="shape"/>
</filter>
</defs>
</svg>
