<svg width="216" height="20" viewBox="0 0 216 20" fill="none" xmlns="http://www.w3.org/2000/svg">
<path d="M9.22602 12.08C8.40602 12.1 5.22602 12.08 5.22602 12.08C3.94602 12.08 2.14602 12.26 2.14602 11C2.14602 7.84 8.20602 2.64 10.466 2.64C10.946 2.64 11.106 2.9 11.106 3.28C11.106 4.5 6.68602 7.64 4.50602 9.24L6.74602 9.8C8.64602 8.6 13.146 5.56 13.146 2.68C13.146 1.56 12.506 0.68 11.066 0.68C6.06602 0.68 0.146016 7.02 0.146016 11.12C0.146016 14.26 2.68602 14 4.82602 14C4.82602 14 6.76602 14.06 7.86602 14L9.22602 12.08ZM15.588 7.68C13.688 7.68 11.808 9.64 11.808 11.88C11.808 13.84 13.228 14.34 14.208 14.34C16.548 14.34 17.708 11.54 17.748 10.82H18.368L18.908 9.32H17.708C17.708 8.88 17.248 7.68 15.588 7.68ZM13.268 11.6C13.268 10.48 14.388 9.44 15.288 9.06C15.188 9.52 15.088 9.88 15.308 10.3C15.508 10.66 15.848 10.78 16.268 10.84C16.088 11.3 15.328 12.76 14.288 12.76C13.608 12.76 13.268 12.3 13.268 11.6ZM18.8504 14.2L20.4304 13.98C21.9304 11.36 23.1904 9.94 23.9704 9.94C24.0704 9.94 24.0904 10.08 24.0904 10.14C24.0704 10.52 22.9504 13.34 22.6504 14.12L24.1704 13.94C24.7704 12.86 26.6904 9.94 27.6704 9.94C27.7704 9.94 27.8104 9.98 27.8104 10.14C27.8104 10.4 26.8304 12.56 26.8304 13.24C26.8304 13.92 27.6704 14.02 28.2104 14.02L29.5904 14L30.0104 12.6H29.2904C29.0304 12.6 28.9504 12.58 28.7904 12.54C28.7704 12.54 28.7304 12.46 28.7304 12.44C28.9704 11.48 29.8904 9.9 29.8904 8.72C29.8904 8.28 29.6304 7.84 28.8704 7.84C27.8304 7.84 27.1704 8.52 26.1504 9.5C26.2504 8.58 26.1304 7.84 25.2104 7.84C24.1904 7.84 23.2104 8.8 22.2304 9.64L22.7704 7.84L21.0904 8.2L18.8504 14.2ZM31.1171 7.84C31.1771 8.36 31.0971 8.66 31.0971 9.2C31.0971 10.58 30.8171 12.08 30.4171 13.22C29.8571 14.8 29.2571 15.86 28.8771 16.9C28.3171 18.42 28.0971 19.02 27.9571 19.48C28.5971 19.4 29.5171 19.22 29.5171 19.22C29.9571 18.36 30.2971 17.76 30.6371 16.8C31.1571 15.32 31.3171 14.28 31.5971 13.8C32.8371 11.74 35.1771 9.16 36.5371 9.16C37.0371 9.16 37.1971 9.4 37.1971 9.66C37.1971 10.72 35.2371 12.42 33.4771 12.66L32.6571 14H37.3171L38.1571 12.6H36.5371C36.9171 12.32 38.5971 11.28 38.5971 9.54C38.5971 8.54 38.0571 7.6 36.8571 7.6C35.0171 7.6 33.4571 9.62 32.5571 10.3C32.6771 9.82 32.7371 9.4 32.7371 8.84C32.7371 8.46 32.7571 8.2 32.6971 7.84H31.1171ZM40.8104 8.04C40.3704 9.12 40.1104 9.94 39.7104 11.06C39.4304 11.82 39.1504 12.36 39.1504 13.14C39.1504 13.84 39.6904 14.2 40.3104 14.2C41.5304 14.2 42.0304 13.8 42.7104 13.32C42.8704 13.9 43.5704 14 44.2104 14H45.5504L45.9304 12.6C45.2704 12.6 44.8504 12.6 44.8504 12.6C44.5504 12.6 44.2904 12.38 44.3304 12C44.3704 11.72 44.9104 10.66 45.1704 10C45.4704 9.26 45.8504 7.92 45.8504 7.92H44.0704C43.8704 8.38 43.6304 8.86 43.4504 9.32C43.1904 9.96 43.0504 10.56 42.8304 11.06C42.5904 11.62 41.4504 12.5 41.0104 12.5C40.9304 12.5 40.8904 12.42 40.9104 12.3C40.9304 12.12 41.8504 9.36 42.3704 7.88L40.8104 8.04ZM47.7676 7.84L47.1276 9.4H48.4676L47.6676 11.48C47.4676 12.08 47.1876 12.62 47.1876 13.08C47.1876 13.84 48.0476 14 48.6676 14C48.6676 14 49.7076 14.04 50.2476 14L50.7676 12.6H49.6476C49.3076 12.6 49.1876 12.6 49.1076 12.52C49.0276 12.44 49.0276 12.42 49.0676 12.28C49.1076 12.14 49.2076 11.82 49.2676 11.68L50.1076 9.4H51.3276L51.9276 7.84H50.6876L51.6276 5.34L49.8676 5.58L49.0276 7.84H47.7676ZM56.714 7.6C55.034 7.6 52.334 9.58 52.334 12.12C52.334 13.88 53.934 14 55.094 14H57.054L57.594 12.6C57.594 12.6 54.974 12.6 54.894 12.6C56.614 11.9 58.434 10.48 58.434 9.1C58.434 8.22 57.874 7.6 56.714 7.6ZM54.354 11.48C54.194 11.58 53.794 11.74 53.794 11.74C54.074 10.58 55.714 9.18 56.394 9.18C56.754 9.18 56.814 9.32 56.814 9.54C56.814 9.96 55.634 10.72 54.354 11.48ZM59.0141 10.54H60.3941L60.7741 9.64H61.8741C61.4341 10.26 60.3541 11.42 60.3541 12.6C60.3541 13.72 61.3941 14 62.3341 14H63.6541L64.3741 12.6C63.9341 12.6 62.8741 12.6 62.8741 12.6C62.4741 12.6 61.9541 12.58 61.9541 12.12C61.9541 11.32 63.0741 10.18 63.6141 9.64H64.2541L64.7541 8.18H61.2741L61.6141 7.3H60.2541L59.0141 10.54ZM77.7635 8.72L75.7635 10.52C76.3235 10.66 76.7435 10.76 77.3835 10.78C77.6235 10.78 77.7835 10.78 78.0235 10.78C78.5435 11.26 78.8435 11.62 79.2435 12.22C79.6635 12.86 79.8635 13.28 80.1835 14H84.0635L83.3035 12.08H81.5435C81.2835 11.78 81.3035 11.78 81.0235 11.36C80.7835 11 80.4635 10.54 80.4635 10.54C84.5435 9.66 87.3235 6.12 87.3235 3.32C87.3235 2.12 86.7635 0.68 85.1635 0.68C82.7235 0.68 78.5635 4.1 77.4235 5.38C77.8435 4.28 78.3835 3.14 78.3835 2.32C78.3835 1.76 78.4635 0.68 76.2835 0.68H74.1435L74.6235 2.64H75.4835C75.8235 2.64 76.2035 2.6 76.2035 3.12C76.2035 4.2 74.8235 7.08 73.6035 8.76C72.1835 10.72 70.6435 11.6 69.3635 14H71.8435C72.8035 12.72 73.8235 11.14 75.2635 9.64C78.2635 6.52 82.8635 2.8 84.6835 2.8C85.1835 2.8 85.4235 3.24 85.4235 3.54C85.4235 4.78 84.4635 6.08 82.4635 7.5C81.5835 8.12 80.2835 8.72 77.7635 8.72ZM90.8546 7.6C89.1746 7.6 86.4746 9.58 86.4746 12.12C86.4746 13.88 88.0746 14 89.2346 14H91.1946L91.7346 12.6C91.7346 12.6 89.1146 12.6 89.0346 12.6C90.7546 11.9 92.5746 10.48 92.5746 9.1C92.5746 8.22 92.0146 7.6 90.8546 7.6ZM88.4946 11.48C88.3346 11.58 87.9346 11.74 87.9346 11.74C88.2146 10.58 89.8546 9.18 90.5346 9.18C90.8946 9.18 90.9546 9.32 90.9546 9.54C90.9546 9.96 89.7746 10.72 88.4946 11.48ZM93.7148 7.84C93.7748 8.36 93.6948 8.66 93.6948 9.2C93.6948 10.58 93.4148 12.08 93.0148 13.22C92.4548 14.8 91.8548 15.86 91.4748 16.9C90.9148 18.42 90.6948 19.02 90.5548 19.48C91.1948 19.4 92.1148 19.22 92.1148 19.22C92.5548 18.36 92.8948 17.76 93.2348 16.8C93.7548 15.32 93.9148 14.28 94.1948 13.8C95.4348 11.74 97.7748 9.16 99.1348 9.16C99.6348 9.16 99.7948 9.4 99.7948 9.66C99.7948 10.72 97.8348 12.42 96.0748 12.66L95.2548 14H99.9148L100.755 12.6H99.1348C99.5148 12.32 101.195 11.28 101.195 9.54C101.195 8.54 100.655 7.6 99.4548 7.6C97.6148 7.6 96.0548 9.62 95.1548 10.3C95.2748 9.82 95.3348 9.4 95.3348 8.84C95.3348 8.46 95.3548 8.2 95.2948 7.84H93.7148ZM109.108 7.6C108.868 7.6 108.548 7.6 108.188 7.6C105.288 7.6 101.748 9.72 101.748 12.52C101.748 13.96 103.008 14.1 103.608 14.1C104.328 14.1 104.948 13.98 105.468 13.54C105.548 13.66 105.608 13.8 105.748 13.88C105.988 14.02 106.168 14 106.408 14H107.848L108.328 12.6H107.528C107.148 12.6 106.888 12.48 106.908 12.18C106.928 11.84 107.608 10.26 107.728 9.96L106.168 10.1C105.928 10.68 105.668 11.44 105.328 12.02C105.148 12.34 104.728 12.6 104.208 12.6C103.868 12.6 103.428 12.54 103.428 12.08C103.428 10.82 105.468 9.16 107.628 9.18C107.808 9.18 107.908 9.2 108.108 9.18L109.108 7.6ZM110.75 8.22L109.29 12.22C109.15 12.66 109.05 12.92 109.05 13.02C109.05 13.92 109.63 14 110.33 14H111.51L112.07 12.6H111.31C111.13 12.6 110.93 12.58 110.85 12.52C110.83 12.5 110.83 12.38 110.83 12.36C110.85 12.3 110.85 12.28 111.03 11.78L112.51 7.84L110.75 8.22ZM112.29 3.22C111.45 3.22 110.81 3.96 110.83 4.8C110.85 5.62 111.55 6.3 112.37 6.28C113.19 6.26 113.81 5.54 113.81 4.72C113.81 3.9 113.11 3.22 112.29 3.22ZM113.155 10.54H114.535L114.915 9.64H116.015C115.575 10.26 114.495 11.42 114.495 12.6C114.495 13.72 115.535 14 116.475 14H117.795L118.515 12.6C118.075 12.6 117.015 12.6 117.015 12.6C116.615 12.6 116.095 12.58 116.095 12.12C116.095 11.32 117.215 10.18 117.755 9.64H118.395L118.895 8.18H115.415L115.755 7.3H114.395L113.155 10.54ZM130.304 10.22C130.484 9.28 130.844 8.34 130.984 7.84L129.284 8.14C129.064 8.86 128.864 9.66 128.724 10.46C128.264 11.04 127.364 12.08 127.024 12.02C126.884 12 126.884 11.9 126.884 11.72C126.964 10.22 127.564 8.54 127.784 7.78L126.084 8.08C125.724 9.3 125.384 10.72 125.404 11.98C125.424 13.12 125.724 14.34 126.464 14.34C126.964 14.34 127.624 13.8 128.664 12.92C128.804 13.72 129.104 14.34 129.664 14.34C130.524 14.34 132.324 12.4 133.884 10.24H134.824L135.584 8.46H134.664C134.704 8.32 134.704 8.28 134.704 8.14C134.704 7.92 134.564 7.64 134.164 7.66C133.624 7.68 131.684 9.22 131.684 9.88C131.684 10.16 131.844 10.18 131.944 10.28C131.564 10.78 130.604 12.14 130.224 12.08C130.084 12.06 130.084 11.96 130.084 11.78C130.084 11.64 130.204 10.8 130.304 10.22ZM137.078 8.22L135.618 12.22C135.478 12.66 135.378 12.92 135.378 13.02C135.378 13.92 135.958 14 136.658 14H137.838L138.398 12.6H137.638C137.458 12.6 137.258 12.58 137.178 12.52C137.158 12.5 137.158 12.38 137.158 12.36C137.178 12.3 137.178 12.28 137.358 11.78L138.838 7.84L137.078 8.22ZM138.618 3.22C137.778 3.22 137.138 3.96 137.158 4.8C137.178 5.62 137.878 6.3 138.698 6.28C139.518 6.26 140.138 5.54 140.138 4.72C140.138 3.9 139.438 3.22 138.618 3.22ZM140.463 7.84L139.823 9.4H141.163L140.363 11.48C140.163 12.08 139.883 12.62 139.883 13.08C139.883 13.84 140.743 14 141.363 14C141.363 14 142.403 14.04 142.943 14L143.463 12.6H142.343C142.003 12.6 141.883 12.6 141.803 12.52C141.723 12.44 141.723 12.42 141.763 12.28C141.803 12.14 141.903 11.82 141.963 11.68L142.803 9.4H144.023L144.623 7.84H143.383L144.323 5.34L142.563 5.58L141.723 7.84H140.463ZM146.309 13.98C147.189 12.56 148.709 9.96 149.789 9.96C149.909 9.96 149.989 10.1 149.949 10.26C149.849 10.68 148.949 12.86 148.949 13.3C148.949 13.96 149.729 14 150.329 14H151.729L152.129 12.6H151.469C151.249 12.6 151.129 12.62 150.909 12.56C150.889 12.56 150.829 12.48 150.829 12.46C151.069 11.5 151.989 9.96 151.989 8.78C151.989 8.34 151.809 7.86 151.049 7.86C150.049 7.86 149.029 8.78 148.029 9.76C148.029 9.74 150.949 1.48 150.949 1.48L149.269 1.92L144.729 14.2L146.309 13.98ZM165.924 7.6C165.684 7.6 165.364 7.6 165.004 7.6C162.104 7.6 158.564 9.72 158.564 12.52C158.564 13.96 159.824 14.1 160.424 14.1C161.144 14.1 161.764 13.98 162.284 13.54C162.364 13.66 162.424 13.8 162.564 13.88C162.804 14.02 162.984 14 163.224 14H164.664L165.144 12.6H164.344C163.964 12.6 163.704 12.48 163.724 12.18C163.744 11.84 164.424 10.26 164.544 9.96L162.984 10.1C162.744 10.68 162.484 11.44 162.144 12.02C161.964 12.34 161.544 12.6 161.024 12.6C160.684 12.6 160.244 12.54 160.244 12.08C160.244 10.82 162.284 9.16 164.444 9.18C164.624 9.18 164.724 9.2 164.924 9.18L165.924 7.6ZM169.104 14H174.764C177.244 14 179.524 13.36 179.524 10.82C179.524 8.6 176.424 7.44 176.424 5.98C176.424 4.46 180.484 2.58 181.224 2.54C181.504 2.52 181.624 2.64 181.644 2.82C181.684 3.26 180.824 4.44 180.364 5.04C179.584 6.08 179.304 6.44 178.504 7.34L180.964 7.24C181.464 6.64 181.884 6.2 182.424 5.42C183.244 4.24 184.144 2.92 184.144 1.98C184.144 1.56 183.984 0.68 182.344 0.68C178.544 0.68 174.184 3.72 174.184 6.02C174.184 8.44 177.384 9.2 177.384 11.06C177.384 12.08 175.784 12.1 174.664 12.1H170.184L169.104 14ZM182.054 14.2L183.634 13.98C185.134 11.36 186.394 9.94 187.174 9.94C187.274 9.94 187.294 10.08 187.294 10.14C187.274 10.52 186.154 13.34 185.854 14.12L187.374 13.94C187.974 12.86 189.894 9.94 190.874 9.94C190.974 9.94 191.014 9.98 191.014 10.14C191.014 10.4 190.034 12.56 190.034 13.24C190.034 13.92 190.874 14.02 191.414 14.02L192.794 14L193.214 12.6H192.494C192.234 12.6 192.154 12.58 191.994 12.54C191.974 12.54 191.934 12.46 191.934 12.44C192.174 11.48 193.094 9.9 193.094 8.72C193.094 8.28 192.834 7.84 192.074 7.84C191.034 7.84 190.374 8.52 189.354 9.5C189.454 8.58 189.334 7.84 188.414 7.84C187.394 7.84 186.414 8.8 185.434 9.64L185.974 7.84L184.294 8.2L182.054 14.2ZM195.32 8.22L193.86 12.22C193.72 12.66 193.62 12.92 193.62 13.02C193.62 13.92 194.2 14 194.9 14H196.08L196.64 12.6H195.88C195.7 12.6 195.5 12.58 195.42 12.52C195.4 12.5 195.4 12.38 195.4 12.36C195.42 12.3 195.42 12.28 195.6 11.78L197.08 7.84L195.32 8.22ZM196.86 3.22C196.02 3.22 195.38 3.96 195.4 4.8C195.42 5.62 196.12 6.3 196.94 6.28C197.76 6.26 198.38 5.54 198.38 4.72C198.38 3.9 197.68 3.22 196.86 3.22ZM201.685 1.84L197.845 12.08C197.645 12.64 197.545 12.86 197.545 13.18C197.545 13.84 198.305 14 199.005 14H200.725L201.145 12.6C200.905 12.6 199.985 12.6 199.985 12.6C199.605 12.6 199.385 12.58 199.305 12.5C199.285 12.48 199.265 12.34 199.285 12.32C199.345 12.18 199.285 12.36 199.525 11.72L203.625 1.14L201.685 1.84ZM206.441 7.6C204.761 7.6 202.061 9.58 202.061 12.12C202.061 13.88 203.661 14 204.821 14H206.781L207.321 12.6C207.321 12.6 204.701 12.6 204.621 12.6C206.341 11.9 208.161 10.48 208.161 9.1C208.161 8.22 207.601 7.6 206.441 7.6ZM204.081 11.48C203.921 11.58 203.521 11.74 203.521 11.74C203.801 10.58 205.441 9.18 206.121 9.18C206.481 9.18 206.541 9.32 206.541 9.54C206.541 9.96 205.361 10.72 204.081 11.48ZM210.541 11.3C209.701 11.3 209.021 11.98 209.021 12.82C209.021 13.66 209.701 14.34 210.541 14.34C211.381 14.34 212.061 13.66 212.061 12.82C212.061 11.98 211.381 11.3 210.541 11.3ZM210.441 10.72L212.401 10.4L215.681 0.939999L213.841 1.14L210.441 10.72Z" fill="white"/>
</svg>
