<?xml version="1.0" encoding="iso-8859-1"?>
<!-- Generator: Adobe Illustrator 19.0.0, SVG Export Plug-In . SVG Version: 6.00 Build 0)  -->
<svg version="1.1" id="Capa_1" xmlns="http://www.w3.org/2000/svg" xmlns:xlink="http://www.w3.org/1999/xlink" x="0px" y="0px"
	 viewBox="0 0 512 512" style="enable-background:new 0 0 512 512;" xml:space="preserve">
<path style="fill:#303C42;" d="M437.333,298.667H384v-68.628l48.156-28.893c5.052-3.031,6.688-9.583,3.656-14.635
	c-3.021-5.052-9.583-6.688-14.635-3.656l-39.457,23.674c-7.207-29.794-32.247-52.405-63.197-56.266l-4.878-29.273
	c-1.759-10.547-7.26-19.578-14.979-25.93V74.667c0-29.406,23.927-53.333,53.333-53.333c5.896,0,10.667-4.771,10.667-10.667
	S357.896,0,352,0c-41.167,0-74.667,33.5-74.667,74.667v11.181c-1.901-0.257-3.803-0.514-5.771-0.514h-31.125
	c-1.967,0-3.87,0.258-5.771,0.514V74.667C234.667,33.5,201.167,0,160,0c-5.896,0-10.667,4.771-10.667,10.667
	S154.104,21.333,160,21.333c29.406,0,53.333,23.927,53.333,53.333V95.06c-7.719,6.352-13.22,15.383-14.979,25.93l-4.878,29.273
	c-30.949,3.861-55.99,26.471-63.197,56.266l-39.457-23.674c-5.063-3.031-11.604-1.396-14.635,3.656s-1.396,11.604,3.656,14.635
	L128,230.039v68.628H74.667c-5.896,0-10.667,4.771-10.667,10.667S68.771,320,74.667,320H128v64c0,4.993,0.359,9.898,0.918,14.745
	l-49.074,29.443c-5.052,3.031-6.688,9.583-3.656,14.635c2,3.333,5.531,5.177,9.156,5.177c1.865,0,3.76-0.49,5.479-1.521
	l42.65-25.589C149.353,473.535,198.243,512,256,512s106.647-38.467,122.527-91.112l42.65,25.591
	c1.719,1.031,3.615,1.521,5.479,1.521c3.625,0,7.156-1.844,9.156-5.177c3.031-5.052,1.396-11.604-3.656-14.635l-49.074-29.447
	C383.641,393.896,384,388.992,384,384v-64h53.333c5.896,0,10.667-4.771,10.667-10.667S443.229,298.667,437.333,298.667z"/>
<path style="fill:#CA7C1B;" d="M271.563,106.667c10.469,0,19.323,7.5,21.042,17.823l4.139,24.844h-81.487l4.139-24.844
	c1.719-10.323,10.573-17.823,21.042-17.823H271.563z"/>
<path style="opacity:0.2;fill:#FFFFFF;enable-background:new    ;" d="M247.852,106.667h-7.414c-10.469,0-19.323,7.5-21.042,17.823
	l-4.139,24.844h19.41l2.168-24.844C237.734,114.167,242.37,106.667,247.852,106.667z"/>
<path style="opacity:0.1;enable-background:new    ;" d="M292.604,124.49c-1.719-10.323-10.573-17.823-21.042-17.823h-7.414
	c5.482,0,10.117,7.5,11.017,17.823l2.168,24.844h19.41L292.604,124.49z"/>
<path style="fill:#CA7C1B;" d="M256,490.667c-58.813,0-106.667-47.854-106.667-106.667V224c0-29.406,23.927-53.333,53.333-53.333
	h106.667c29.406,0,53.333,23.927,53.333,53.333v160C362.667,442.813,314.813,490.667,256,490.667z"/>
<path style="opacity:0.2;fill:#FFFFFF;enable-background:new    ;" d="M170.667,384V224c0-29.406,19.142-53.333,42.667-53.333
	h-10.667c-29.406,0-53.333,23.927-53.333,53.333v160c0,58.813,47.854,106.667,106.667,106.667
	C208.951,490.667,170.667,442.813,170.667,384z"/>
<path style="opacity:0.1;enable-background:new    ;" d="M309.333,170.667h-10.667c23.525,0,42.667,23.927,42.667,53.333v160
	c0,58.813-38.284,106.667-85.333,106.667c58.813,0,106.667-47.854,106.667-106.667V224
	C362.667,194.594,338.74,170.667,309.333,170.667z"/>
<path style="fill:#303C42;" d="M330.667,288c5.896,0,10.667-4.771,10.667-10.667s-4.771-10.667-10.667-10.667H320
	c0-5.896-4.771-10.667-10.667-10.667v-10.667c0-5.896-4.771-10.667-10.667-10.667c-5.896,0-10.667,4.771-10.667,10.667V256h-21.333
	v-10.667c0-5.896-4.771-10.667-10.667-10.667c-5.896,0-10.667,4.771-10.667,10.667V256H224v-10.667
	c0-5.896-4.771-10.667-10.667-10.667c-5.896,0-10.667,4.771-10.667,10.667V256c-5.896,0-10.667,4.771-10.667,10.667h-10.667
	c-5.896,0-10.667,4.771-10.667,10.667S175.438,288,181.333,288H192v21.333h-10.667c-5.896,0-10.667,4.771-10.667,10.667
	c0,5.896,4.771,10.667,10.667,10.667H192V352h-10.667c-5.896,0-10.667,4.771-10.667,10.667c0,5.896,4.771,10.667,10.667,10.667H192
	c0,5.896,4.771,10.667,10.667,10.667v10.667c0,5.896,4.771,10.667,10.667,10.667c5.896,0,10.667-4.771,10.667-10.667V384h21.333
	v10.667c0,5.896,4.771,10.667,10.667,10.667c5.896,0,10.667-4.771,10.667-10.667V384H288v10.667c0,5.896,4.771,10.667,10.667,10.667
	c5.896,0,10.667-4.771,10.667-10.667V384c5.896,0,10.667-4.771,10.667-10.667h10.667c5.896,0,10.667-4.771,10.667-10.667
	c0-5.896-4.771-10.667-10.667-10.667H320v-21.333h10.667c5.896,0,10.667-4.771,10.667-10.667c0-5.896-4.771-10.667-10.667-10.667
	H320V288H330.667z"/>
<rect x="213.333" y="277.333" style="fill:#546E7A;" width="85.333" height="85.333"/>
<rect x="213.333" y="277.333" style="opacity:0.2;fill:#FFFFFF;enable-background:new    ;" width="21.333" height="85.333"/>
<rect x="277.333" y="277.333" style="opacity:0.1;enable-background:new    ;" width="21.333" height="85.333"/>
<linearGradient id="SVGID_1_" gradientUnits="userSpaceOnUse" x1="-42.9956" y1="639.0355" x2="-24.1611" y2="630.2523" gradientTransform="matrix(21.3333 0 0 -21.3333 996.3334 13791.667)">
	<stop  offset="0" style="stop-color:#FFFFFF;stop-opacity:0.2"/>
	<stop  offset="1" style="stop-color:#FFFFFF;stop-opacity:0"/>
</linearGradient>
<path style="fill:url(#SVGID_1_);" d="M437.333,298.667H384v-68.628l48.156-28.893c5.052-3.031,6.688-9.583,3.656-14.635
	c-3.021-5.052-9.583-6.688-14.635-3.656l-39.457,23.674c-7.207-29.794-32.247-52.405-63.197-56.266l-4.878-29.273
	c-1.759-10.547-7.26-19.578-14.979-25.93V74.667c0-29.406,23.927-53.333,53.333-53.333c5.896,0,10.667-4.771,10.667-10.667
	S357.896,0,352,0c-41.167,0-74.667,33.5-74.667,74.667v11.181c-1.901-0.257-3.803-0.514-5.771-0.514h-31.125
	c-1.967,0-3.87,0.258-5.771,0.514V74.667C234.667,33.5,201.167,0,160,0c-5.896,0-10.667,4.771-10.667,10.667
	S154.104,21.333,160,21.333c29.406,0,53.333,23.927,53.333,53.333V95.06c-7.719,6.352-13.22,15.383-14.979,25.93l-4.878,29.273
	c-30.949,3.861-55.99,26.471-63.197,56.266l-39.457-23.674c-5.063-3.031-11.604-1.396-14.635,3.656s-1.396,11.604,3.656,14.635
	L128,230.039v68.628H74.667c-5.896,0-10.667,4.771-10.667,10.667S68.771,320,74.667,320H128v64c0,4.993,0.359,9.898,0.918,14.745
	l-49.074,29.443c-5.052,3.031-6.688,9.583-3.656,14.635c2,3.333,5.531,5.177,9.156,5.177c1.865,0,3.76-0.49,5.479-1.521
	l42.65-25.589C149.353,473.535,198.243,512,256,512s106.647-38.467,122.527-91.112l42.65,25.591
	c1.719,1.031,3.615,1.521,5.479,1.521c3.625,0,7.156-1.844,9.156-5.177c3.031-5.052,1.396-11.604-3.656-14.635l-49.074-29.447
	C383.641,393.896,384,388.992,384,384v-64h53.333c5.896,0,10.667-4.771,10.667-10.667S443.229,298.667,437.333,298.667z"/>
<g>
</g>
<g>
</g>
<g>
</g>
<g>
</g>
<g>
</g>
<g>
</g>
<g>
</g>
<g>
</g>
<g>
</g>
<g>
</g>
<g>
</g>
<g>
</g>
<g>
</g>
<g>
</g>
<g>
</g>
</svg>
