<?xml version="1.0" encoding="iso-8859-1"?>
<!-- Generator: Adobe Illustrator 19.0.0, SVG Export Plug-In . SVG Version: 6.00 Build 0)  -->
<svg version="1.1" id="Capa_1" xmlns="http://www.w3.org/2000/svg" xmlns:xlink="http://www.w3.org/1999/xlink" x="0px" y="0px"
	 viewBox="0 0 469.333 469.333" style="enable-background:new 0 0 469.333 469.333;" xml:space="preserve">
<path style="fill:#303C42;" d="M42.667,170.667h42.667V32c0-5.896,4.771-10.667,10.667-10.667c5.896,0,10.667,4.771,10.667,10.667
	v138.667h320c23.531,0,42.667,19.135,42.667,42.667v85.333c0,23.531-19.135,42.667-42.667,42.667h-384
	C19.135,341.333,0,322.198,0,298.667v-85.333C0,189.802,19.135,170.667,42.667,170.667z"/>
<path style="fill:#495965;" d="M21.333,298.667c0,11.76,9.573,21.333,21.333,21.333h384c11.76,0,21.333-9.573,21.333-21.333v-85.333
	c0-11.76-9.573-21.333-21.333-21.333h-384c-11.76,0-21.333,9.573-21.333,21.333V298.667z"/>
<path style="opacity:0.2;fill:#FFFFFF;enable-background:new    ;" d="M426.667,298.667v-85.333c0-11.76-8.703-21.333-19.395-21.333
	h19.395c11.76,0,21.333,9.573,21.333,21.333v85.333c0,11.76-9.573,21.333-21.333,21.333h-19.395
	C417.964,320,426.667,310.427,426.667,298.667z"/>
<path style="opacity:0.1;enable-background:new    ;" d="M42.667,192h19.395c-10.691,0-19.395,9.573-19.395,21.333v85.333
	c0,11.76,8.703,21.333,19.395,21.333H42.667c-11.76,0-21.333-9.573-21.333-21.333v-85.333C21.333,201.573,30.906,192,42.667,192z"/>
<g>
	<circle style="fill:#7CB342;" cx="64" cy="277.333" r="21.333"/>
	<path style="fill:#7CB342;" d="M117.333,277.333c-5.896,0-10.667,4.771-10.667,10.667c0,5.896,4.771,10.667,10.667,10.667h21.333
		c5.896,0,10.667-4.771,10.667-10.667c0-5.896-4.771-10.667-10.667-10.667H117.333z"/>
	<path style="fill:#7CB342;" d="M181.333,277.333c-5.896,0-10.667,4.771-10.667,10.667c0,5.896,4.771,10.667,10.667,10.667h21.333
		c5.896,0,10.667-4.771,10.667-10.667c0-5.896-4.771-10.667-10.667-10.667H181.333z"/>
</g>
<path style="fill:#303C42;" d="M309.333,341.333c-5.896,0-10.667,4.771-10.667,10.667c0,5.896,4.771,10.667,10.667,10.667H320v14.74
	l-15.438,7.719c-5.271,2.635-7.396,9.042-4.771,14.313c1.875,3.74,5.646,5.896,9.542,5.896c1.604,0,3.229-0.365,4.771-1.125
	l8.202-4.1C329.499,427.578,354.305,448,384,448s54.501-20.422,61.695-47.892l8.201,4.1c1.542,0.76,3.167,1.125,4.771,1.125
	c3.896,0,7.667-2.156,9.542-5.896c2.625-5.271,0.5-11.677-4.771-14.313L448,377.406v-14.74h10.667
	c5.896,0,10.667-4.771,10.667-10.667c0-5.896-4.771-10.667-10.667-10.667H448v-14.74l15.438-7.719
	c5.271-2.635,7.396-9.042,4.771-14.313c-2.646-5.281-9.021-7.385-14.313-4.771l-8.982,4.491
	c-5.197-13.039-16.591-22.926-30.568-25.948c-0.914-2.858-2.092-5.595-3.727-8.043l13.922-18.563
	c3.521-4.708,2.563-11.396-2.146-14.927c-4.667-3.51-11.375-2.583-14.938,2.135l-13.99,18.655C390.457,256.651,387.318,256,384,256
	c-3.318,0-6.457,0.651-9.469,1.592l-13.99-18.655c-3.542-4.719-10.25-5.656-14.938-2.135c-4.708,3.531-5.667,10.219-2.146,14.927
	l13.922,18.563c-1.634,2.448-2.813,5.185-3.727,8.043c-13.977,3.022-25.371,12.909-30.568,25.948l-8.982-4.491
	c-5.25-2.594-11.667-0.51-14.313,4.771c-2.625,5.271-0.5,11.677,4.771,14.313L320,326.594v14.74H309.333z"/>
<g>
	<path style="fill:#CA7C1B;" d="M426.667,320v64c0,19.826-13.654,36.382-32,41.151V298.667h10.667
		C417.104,298.667,426.667,308.24,426.667,320z"/>
	<path style="fill:#CA7C1B;" d="M341.333,320c0-11.76,9.563-21.333,21.333-21.333h10.667v126.484c-18.346-4.77-32-21.326-32-41.151
		V320z"/>
</g>
<path style="opacity:0.1;enable-background:new    ;" d="M394.667,405.333v19.818c18.346-4.77,32-21.326,32-41.151v-19.818
	C426.667,384.008,413.013,400.564,394.667,405.333z"/>
<path style="opacity:0.1;enable-background:new    ;" d="M341.333,364.182V384c0,19.826,13.654,36.382,32,41.151v-19.818
	C354.987,400.564,341.333,384.008,341.333,364.182z"/>
<linearGradient id="SVGID_1_" gradientUnits="userSpaceOnUse" x1="-66.0075" y1="616.8009" x2="-44.4691" y2="606.7567" gradientTransform="matrix(21.3333 0 0 -21.3333 1430.1112 13315.2227)">
	<stop  offset="0" style="stop-color:#FFFFFF;stop-opacity:0.2"/>
	<stop  offset="1" style="stop-color:#FFFFFF;stop-opacity:0"/>
</linearGradient>
<path style="fill:url(#SVGID_1_);" d="M469.333,213.333c0-23.531-19.135-42.667-42.667-42.667h-320V32
	c0-5.896-4.771-10.667-10.667-10.667c-5.896,0-10.667,4.771-10.667,10.667v138.667H42.667C19.135,170.667,0,189.802,0,213.333
	v85.333c0,23.531,19.135,42.667,42.667,42.667h266.667c-5.896,0-10.667,4.771-10.667,10.667c0,5.896,4.771,10.667,10.667,10.667H320
	v14.74l-15.438,7.719c-5.271,2.635-7.396,9.042-4.771,14.313c1.875,3.74,5.646,5.896,9.542,5.896c1.604,0,3.229-0.365,4.771-1.125
	l8.202-4.1C329.499,427.578,354.305,448,384,448s54.501-20.422,61.695-47.892l8.201,4.1c1.542,0.76,3.167,1.125,4.771,1.125
	c3.896,0,7.667-2.156,9.542-5.896c2.625-5.271,0.5-11.677-4.771-14.313L448,377.406v-14.74h10.667
	c5.896,0,10.667-4.771,10.667-10.667c0-5.896-4.771-10.667-10.667-10.667H448V335.4c7.014-4.09,12.695-10.069,16.435-17.303
	c4.017-2.658,5.673-7.555,4.158-12.107c0.417-2.389,0.741-4.815,0.741-7.323V213.333z"/>
<g>
</g>
<g>
</g>
<g>
</g>
<g>
</g>
<g>
</g>
<g>
</g>
<g>
</g>
<g>
</g>
<g>
</g>
<g>
</g>
<g>
</g>
<g>
</g>
<g>
</g>
<g>
</g>
<g>
</g>
</svg>
